<?xml version="1.0" encoding="utf-8"?>
<!-- Generator: Adobe Illustrator 23.1.1, SVG Export Plug-In . SVG Version: 6.00 Build 0)  -->
<svg version="1.1" xmlns="http://www.w3.org/2000/svg" xmlns:xlink="http://www.w3.org/1999/xlink" x="0px" y="0px" width="19.3px"
	 height="19px" viewBox="0 0 19.3 19" style="enable-background:new 0 0 19.3 19;" xml:space="preserve">
<style type="text/css">
	.st0{display:none;}
	.st1{display:inline;fill:#FFFFFF;}
	.st2{fill:#FFFFFF;}
</style>
<g id="レイヤー_2" class="st0">
	<rect x="-6.6" y="-9.4" class="st1" width="54" height="45"/>
</g>
<g id="レイヤー_1">
	<g>
		<path class="st2" d="M9.7,2.5c3.9,0,7,3.1,7,7s-3.1,7-7,7s-7-3.1-7-7S5.8,2.5,9.7,2.5 M9.7,1.5c-4.4,0-8,3.6-8,8s3.6,8,8,8
			c4.4,0,8-3.6,8-8S14.1,1.5,9.7,1.5L9.7,1.5z"/>
	</g>
	<path class="st2" d="M2.1,10V9.3h9.4c-0.6-0.5-1.5-1.3-2-2l0.6-0.4c0.8,1.1,2,2.1,3.1,2.8c-1.1,0.7-2.3,1.7-3.1,2.8L9.5,12
		c0.6-0.8,1.4-1.5,2-2H2.1z"/>
</g>
</svg>
